<mxfile host="app.diagrams.net" modified="2020-07-02T18:12:15.651Z" agent="5.0 (Windows NT 10.0; Win64; x64) AppleWebKit/537.36 (KHTML, like Gecko) Chrome/83.0.4103.116 Safari/537.36 Edg/83.0.478.56" etag="_1ZaKJ7l7j6kmVXtgKuX" version="13.3.7" type="github">
  <diagram id="NtgZNpQa0DKVfcfyyn9y" name="Page-1">
    <mxGraphModel dx="879" dy="1099" grid="1" gridSize="18" guides="1" tooltips="1" connect="1" arrows="1" fold="1" page="1" pageScale="1" pageWidth="850" pageHeight="1100" math="0" shadow="0">
      <root>
        <mxCell id="0" />
        <mxCell id="1" parent="0" />
        <mxCell id="aYnZF0203ufpym0w9DsO-2" value="&lt;font style=&quot;font-size: 13px&quot;&gt;House&lt;/font&gt;" style="rounded=0;whiteSpace=wrap;html=1;" parent="1" vertex="1">
          <mxGeometry x="270" y="440" width="260" height="160" as="geometry" />
        </mxCell>
        <mxCell id="aYnZF0203ufpym0w9DsO-4" value="Existing&lt;br&gt;Fence" style="endArrow=none;html=1;entryX=0;entryY=0.5;entryDx=0;entryDy=0;" parent="1" target="aYnZF0203ufpym0w9DsO-2" edge="1">
          <mxGeometry width="50" height="50" relative="1" as="geometry">
            <mxPoint x="120" y="520" as="sourcePoint" />
            <mxPoint x="180" y="500" as="targetPoint" />
          </mxGeometry>
        </mxCell>
        <mxCell id="aYnZF0203ufpym0w9DsO-5" value="Existing&lt;br&gt;Fence" style="endArrow=none;html=1;entryX=0;entryY=0.5;entryDx=0;entryDy=0;" parent="1" edge="1">
          <mxGeometry width="50" height="50" relative="1" as="geometry">
            <mxPoint x="530" y="519.5" as="sourcePoint" />
            <mxPoint x="680" y="519.5" as="targetPoint" />
          </mxGeometry>
        </mxCell>
        <mxCell id="aYnZF0203ufpym0w9DsO-6" value="&lt;font color=&quot;#cc0000&quot;&gt;Replace Existing Fence&amp;nbsp;&lt;br&gt;With New Fence&lt;/font&gt;" style="endArrow=none;html=1;strokeColor=#000000;" parent="1" edge="1">
          <mxGeometry width="50" height="50" relative="1" as="geometry">
            <mxPoint x="120" y="520" as="sourcePoint" />
            <mxPoint x="120" y="200" as="targetPoint" />
          </mxGeometry>
        </mxCell>
        <mxCell id="aYnZF0203ufpym0w9DsO-7" value="" style="endArrow=none;html=1;strokeColor=#000000;" parent="1" edge="1">
          <mxGeometry width="50" height="50" relative="1" as="geometry">
            <mxPoint x="680" y="520" as="sourcePoint" />
            <mxPoint x="680" y="200" as="targetPoint" />
          </mxGeometry>
        </mxCell>
        <mxCell id="aYnZF0203ufpym0w9DsO-11" value="&lt;font color=&quot;#cc0000&quot;&gt;Replace Existing Fence&lt;br&gt;with New Fence&lt;/font&gt;" style="edgeLabel;html=1;align=center;verticalAlign=middle;resizable=0;points=[];" parent="aYnZF0203ufpym0w9DsO-7" vertex="1" connectable="0">
          <mxGeometry x="0.0688" y="-4" relative="1" as="geometry">
            <mxPoint as="offset" />
          </mxGeometry>
        </mxCell>
        <mxCell id="aYnZF0203ufpym0w9DsO-8" value="&lt;font color=&quot;#cc0000&quot;&gt;Replace Existing Fence&lt;br&gt;with New Fence&lt;/font&gt;" style="endArrow=none;html=1;strokeColor=#000000;" parent="1" edge="1">
          <mxGeometry width="50" height="50" relative="1" as="geometry">
            <mxPoint x="120" y="200" as="sourcePoint" />
            <mxPoint x="680" y="200" as="targetPoint" />
          </mxGeometry>
        </mxCell>
        <mxCell id="aYnZF0203ufpym0w9DsO-12" value="Fence Specifications : &#xa;6 FT Fence&#xa;Cedar Planks&#xa;Solid Posts" style="text;strokeColor=none;fillColor=none;align=left;verticalAlign=top;spacingLeft=4;spacingRight=4;overflow=hidden;rotatable=0;points=[[0,0.5],[1,0.5]];portConstraint=eastwest;shadow=1;labelBackgroundColor=#ffffff;fontColor=#CC0000;" parent="1" vertex="1">
          <mxGeometry x="664" y="130" width="130" height="60" as="geometry" />
        </mxCell>
        <mxCell id="aYnZF0203ufpym0w9DsO-13" value="" style="shape=link;html=1;" parent="1" edge="1">
          <mxGeometry width="50" height="50" relative="1" as="geometry">
            <mxPoint x="120" y="200" as="sourcePoint" />
            <mxPoint x="190" y="200" as="targetPoint" />
          </mxGeometry>
        </mxCell>
        <mxCell id="aYnZF0203ufpym0w9DsO-14" value="Gate" style="text;strokeColor=none;fillColor=none;align=left;verticalAlign=top;spacingLeft=4;spacingRight=4;overflow=hidden;rotatable=0;points=[[0,0.5],[1,0.5]];portConstraint=eastwest;shadow=1;" parent="1" vertex="1">
          <mxGeometry x="130" y="170" width="50" height="20" as="geometry" />
        </mxCell>
        <mxCell id="aYnZF0203ufpym0w9DsO-16" value="" style="line;strokeWidth=2;html=1;shadow=1;" parent="1" vertex="1">
          <mxGeometry x="120" y="710" width="580" height="10" as="geometry" />
        </mxCell>
        <mxCell id="aYnZF0203ufpym0w9DsO-17" value="" style="line;strokeWidth=2;html=1;shadow=1;" parent="1" vertex="1">
          <mxGeometry x="120" y="800" width="580" height="10" as="geometry" />
        </mxCell>
        <mxCell id="aYnZF0203ufpym0w9DsO-18" value="Street" style="text;strokeColor=none;fillColor=none;align=left;verticalAlign=top;spacingLeft=4;spacingRight=4;overflow=hidden;rotatable=0;points=[[0,0.5],[1,0.5]];portConstraint=eastwest;shadow=1;fontSize=13;" parent="1" vertex="1">
          <mxGeometry x="375" y="756" width="50" height="20" as="geometry" />
        </mxCell>
        <mxCell id="aYnZF0203ufpym0w9DsO-19" value="Driveway" style="whiteSpace=wrap;html=1;aspect=fixed;shadow=1;fontSize=13;" parent="1" vertex="1">
          <mxGeometry x="414" y="600" width="108" height="108" as="geometry" />
        </mxCell>
        <mxCell id="aYnZF0203ufpym0w9DsO-20" value="*Note Existing Fence &#xa;Will Stay as is&#xa;" style="text;strokeColor=none;fillColor=none;align=left;verticalAlign=top;spacingLeft=4;spacingRight=4;overflow=hidden;rotatable=0;points=[[0,0.5],[1,0.5]];portConstraint=eastwest;shadow=1;" parent="1" vertex="1">
          <mxGeometry x="648" y="540" width="162" height="60" as="geometry" />
        </mxCell>
        <mxCell id="aYnZF0203ufpym0w9DsO-21" value="Address : &#xa;7956 144th Ave SE&#xa;Newcastle, WA 98059&#xa;Lot # 02-194&#xa;" style="text;strokeColor=none;fillColor=none;align=left;verticalAlign=top;spacingLeft=4;spacingRight=4;overflow=hidden;rotatable=0;points=[[0,0.5],[1,0.5]];portConstraint=eastwest;shadow=1;" parent="1" vertex="1">
          <mxGeometry x="130" y="648" width="162" height="60" as="geometry" />
        </mxCell>
        <mxCell id="DBlljKblX6yhxG8lvlI_-1" value="Back Yard " style="text;strokeColor=none;fillColor=none;align=left;verticalAlign=top;spacingLeft=4;spacingRight=4;overflow=hidden;rotatable=0;points=[[0,0.5],[1,0.5]];portConstraint=eastwest;shadow=1;fontSize=22;" parent="1" vertex="1">
          <mxGeometry x="344" y="324" width="162" height="60" as="geometry" />
        </mxCell>
        <mxCell id="DBlljKblX6yhxG8lvlI_-2" value="Green belt" style="text;strokeColor=none;fillColor=none;align=left;verticalAlign=top;spacingLeft=4;spacingRight=4;overflow=hidden;rotatable=0;points=[[0,0.5],[1,0.5]];portConstraint=eastwest;shadow=1;fontSize=22;" parent="1" vertex="1">
          <mxGeometry x="344" y="110" width="162" height="60" as="geometry" />
        </mxCell>
        <mxCell id="DBlljKblX6yhxG8lvlI_-10" value="" style="endArrow=none;html=1;strokeColor=#000000;fontSize=22;" parent="1" edge="1">
          <mxGeometry width="50" height="50" relative="1" as="geometry">
            <mxPoint x="122" y="54" as="sourcePoint" />
            <mxPoint x="698" y="54" as="targetPoint" />
          </mxGeometry>
        </mxCell>
      </root>
    </mxGraphModel>
  </diagram>
</mxfile>
